<svg xmlns="http://www.w3.org/2000/svg" width="512" height="512" viewBox="0 0 512 512" role="img" aria-label="SCHLAGHERZ icon">
  <defs>
    <linearGradient id="bg" x1="0" x2="0" y1="0" y2="1">
      <stop offset="0%" stop-color="#2d190e"/>
      <stop offset="55%" stop-color="#120904"/>
      <stop offset="100%" stop-color="#050302"/>
    </linearGradient>
    <linearGradient id="brass" x1="0" x2="1" y1="0" y2="1">
      <stop offset="0%" stop-color="#f7dfa9"/>
      <stop offset="28%" stop-color="#d19b3a"/>
      <stop offset="62%" stop-color="#8f5718"/>
      <stop offset="100%" stop-color="#f2cc82"/>
    </linearGradient>
    <radialGradient id="glow" cx="50%" cy="40%" r="60%">
      <stop offset="0%" stop-color="#ffcf78" stop-opacity="0.65"/>
      <stop offset="55%" stop-color="#ff9f2f" stop-opacity="0.18"/>
      <stop offset="100%" stop-color="#ff9f2f" stop-opacity="0"/>
    </radialGradient>
  </defs>
  <rect x="0" y="0" width="512" height="512" rx="86" fill="url(#bg)"/>
  <rect x="18" y="18" width="476" height="476" rx="74" fill="none" stroke="#7f5c2c" stroke-width="6" opacity="0.9"/>
  <circle cx="256" cy="256" r="188" fill="url(#glow)"/>
  <rect x="86" y="124" width="340" height="264" rx="26" fill="#15100d" stroke="#7a5527" stroke-width="8"/>
  <rect x="102" y="142" width="308" height="228" rx="18" fill="none" stroke="#3e2812" stroke-width="3"/>
  <g fill="url(#brass)">
    <rect x="132" y="92" width="248" height="56" rx="16"/>
    <circle cx="116" cy="116" r="10"/>
    <circle cx="396" cy="116" r="10"/>
    <circle cx="116" cy="396" r="10"/>
    <circle cx="396" cy="396" r="10"/>
  </g>
  <text x="256" y="129" text-anchor="middle" font-family="Georgia, 'Times New Roman', serif" font-size="28" letter-spacing="4" fill="#201106">SH</text>
  <text x="256" y="234" text-anchor="middle" font-family="Georgia, 'Times New Roman', serif" font-size="124" font-weight="700" fill="url(#brass)">S</text>
  <path d="M309 190c33 0 59 18 59 46 0 18-11 31-28 38 19 7 31 22 31 41 0 31-30 53-70 53-23 0-41-5-57-17l15-28c10 7 23 12 39 12 19 0 33-8 33-22 0-14-13-21-33-21h-18v-28h18c17 0 29-8 29-20 0-12-11-19-26-19-14 0-25 4-36 12l-18-27c16-13 37-20 62-20z" fill="url(#brass)"/>
  <g fill="#f3d7a1" opacity="0.88">
    <circle cx="148" cy="202" r="6"/>
    <circle cx="178" cy="202" r="6"/>
    <circle cx="208" cy="202" r="6"/>
    <circle cx="238" cy="202" r="6"/>
    <circle cx="268" cy="202" r="6"/>
    <circle cx="298" cy="202" r="6"/>
    <circle cx="328" cy="202" r="6"/>
    <circle cx="358" cy="202" r="6"/>
  </g>
  <g fill="#cf8b2e">
    <rect x="136" y="312" width="62" height="28" rx="6"/>
    <rect x="206" y="312" width="62" height="28" rx="6"/>
    <rect x="276" y="312" width="62" height="28" rx="6"/>
    <rect x="346" y="312" width="30" height="28" rx="6"/>
  </g>
  <text x="256" y="430" text-anchor="middle" font-family="Georgia, 'Times New Roman', serif" font-size="26" letter-spacing="3" fill="#d2a35b">SCHLAGHERZ</text>
</svg>
